<svg id="Слой_1" data-name="Слой 1" xmlns="http://www.w3.org/2000/svg" viewBox="0 0 240.94 70.87"><defs><style>.cls-1{fill:#00b4f5;}.cls-1,.cls-2,.cls-3{fill-rule:evenodd;}.cls-2{fill:#37327d;}.cls-3{fill:#0a005f;}.cls-4{fill:#353535;}</style></defs><path class="cls-1" d="M42,14.67H69.15l-13,26.22H42a13.11,13.11,0,0,1,0-26.22Z"/><path class="cls-2" d="M56.72,54.65H29.53l13-26.22H56.72a13.11,13.11,0,0,1,0,26.22Z"/><path class="cls-3" d="M61.81,29.46,56.13,40.89H42a12.93,12.93,0,0,1-5.09-1l5.69-11.43H56.72A12.93,12.93,0,0,1,61.81,29.46Z"/><path class="cls-4" d="M87.83,46.57a8.16,8.16,0,0,1-5-7.79h4.28a4.74,4.74,0,0,0,1.74,3.9,7.56,7.56,0,0,0,4.86,1.4,7.13,7.13,0,0,0,4.12-1,3.27,3.27,0,0,0,1.46-2.84,2.86,2.86,0,0,0-.83-2.16,5,5,0,0,0-2.1-1.14c-.86-.23-2-.47-3.42-.7A34,34,0,0,1,88,35.13,7.76,7.76,0,0,1,84.52,33a5.76,5.76,0,0,1-1.42-4.14,7,7,0,0,1,1.15-4,7.57,7.57,0,0,1,3.37-2.66,13.37,13.37,0,0,1,5.27-1,13,13,0,0,1,5.38,1,7.91,7.91,0,0,1,3.53,3A8.32,8.32,0,0,1,103,29.77H98.88a4.47,4.47,0,0,0-1.56-3.65A6.59,6.59,0,0,0,93,24.82a6.8,6.8,0,0,0-4,1,3.18,3.18,0,0,0-1.42,2.73,2.66,2.66,0,0,0,.84,2.09,5.11,5.11,0,0,0,2.14,1.1,34.85,34.85,0,0,0,3.47.71,31.48,31.48,0,0,1,4.93,1.1,7.72,7.72,0,0,1,3.37,2.16,6,6,0,0,1,1.39,4.17A6.8,6.8,0,0,1,101,45.59a11.88,11.88,0,0,1-7.42,2.07A14,14,0,0,1,87.83,46.57Z"/><path class="cls-4" d="M111.65,46.27a8.92,8.92,0,0,1-3.45-3.47,10.15,10.15,0,0,1-1.25-5,9.54,9.54,0,0,1,1.23-4.84,8.64,8.64,0,0,1,3.4-3.33,10.07,10.07,0,0,1,5-1.19,9.9,9.9,0,0,1,4.9,1.19,8.54,8.54,0,0,1,3.36,3.33A9.71,9.71,0,0,1,126,37.8c0,.65,0,1.12,0,1.4H111.06a5.74,5.74,0,0,0,1.88,3.7,5.59,5.59,0,0,0,3.87,1.39,6.15,6.15,0,0,0,3.11-.79A5.44,5.44,0,0,0,122,41.34l3.33,1.27a7.35,7.35,0,0,1-3.3,3.61,10.9,10.9,0,0,1-5.4,1.3A10.08,10.08,0,0,1,111.65,46.27Zm10.25-10a5.51,5.51,0,0,0-1.84-3.36,5.42,5.42,0,0,0-3.63-1.28,5.2,5.2,0,0,0-3.55,1.27,5.67,5.67,0,0,0-1.82,3.37Z"/><path class="cls-4" d="M129.9,21h4v25.9h-4Z"/><path class="cls-4" d="M138.6,21h4v25.9h-4Z"/><path class="cls-4" d="M148.81,45.78a6,6,0,0,1-2.18-4.93h3.65a3.43,3.43,0,0,0,1.3,2.74,5.32,5.32,0,0,0,3.44,1,4.94,4.94,0,0,0,2.82-.71,2.17,2.17,0,0,0,1-1.89,1.69,1.69,0,0,0-.6-1.4,3.46,3.46,0,0,0-1.47-.69,25.49,25.49,0,0,0-2.53-.37,20.91,20.91,0,0,1-3.67-.66A5.92,5.92,0,0,1,148,37.31a4.28,4.28,0,0,1-1.09-3.12A5.05,5.05,0,0,1,149,29.92a8.85,8.85,0,0,1,5.47-1.56,10.48,10.48,0,0,1,4.05.74,6.29,6.29,0,0,1,2.77,2.12,5.35,5.35,0,0,1,1,3.21h-3.75a2.75,2.75,0,0,0-1.16-2.24,4.73,4.73,0,0,0-2.94-.85,4.82,4.82,0,0,0-2.74.71,2.16,2.16,0,0,0-1.05,1.89,1.53,1.53,0,0,0,.63,1.35,3.84,3.84,0,0,0,1.42.6c.53.1,1.46.24,2.79.4a14.22,14.22,0,0,1,5.26,1.51,4.19,4.19,0,0,1,2,4,5,5,0,0,1-2,4.24,9.51,9.51,0,0,1-5.74,1.51A9.41,9.41,0,0,1,148.81,45.78Z"/><path class="cls-4" d="M169.73,46a5.86,5.86,0,0,1-1.45-4.16V32.05h-2.7v-3h2.77l.84-5.75h3.09l0,5.75h4.35v3h-4.35v9.57a2.77,2.77,0,0,0,.7,2,2.48,2.48,0,0,0,1.9.75,7.25,7.25,0,0,0,2-.28v3a7.59,7.59,0,0,1-1.54.36,10.64,10.64,0,0,1-1.61.13A5.11,5.11,0,0,1,169.73,46Z"/><path class="cls-4" d="M181.24,46a4.52,4.52,0,0,1-1.74-3.74,4.92,4.92,0,0,1,2.09-4,12.26,12.26,0,0,1,6.09-2.05l4.42-.49V35a3.1,3.1,0,0,0-1-2.49,5.13,5.13,0,0,0-5.76-.07,2.69,2.69,0,0,0-1,2.31h-3.93a5.57,5.57,0,0,1,2.12-4.59,10.19,10.19,0,0,1,11.45.08,6,6,0,0,1,2.14,4.86V46.89h-4V44.46h-.32a6.5,6.5,0,0,1-5.93,2.92A7.16,7.16,0,0,1,181.24,46Zm9.39-2.81a4.14,4.14,0,0,0,1.47-3.28V38.5l-4.35.49a6.65,6.65,0,0,0-3.28,1.07,2.42,2.42,0,0,0-1.07,2,2.08,2.08,0,0,0,.91,1.78,4.32,4.32,0,0,0,2.53.64A5.56,5.56,0,0,0,190.63,43.18Z"/><path class="cls-4" d="M203.48,46A5.86,5.86,0,0,1,202,41.8V32.05h-2.7v-3h2.77l.84-5.75H206l0,5.75h4.35v3H206v9.57a2.77,2.77,0,0,0,.7,2,2.48,2.48,0,0,0,1.9.75,7.19,7.19,0,0,0,2-.28v3a7.59,7.59,0,0,1-1.54.36,10.64,10.64,0,0,1-1.61.13A5.11,5.11,0,0,1,203.48,46Z"/></svg>